<?xml version="1.0" encoding="utf-8"?>
<!-- Generator: Adobe Illustrator 24.0.1, SVG Export Plug-In . SVG Version: 6.00 Build 0)  -->
<svg version="1.1" id="Layer_1" xmlns="http://www.w3.org/2000/svg" xmlns:xlink="http://www.w3.org/1999/xlink" x="0px" y="0px"
	 viewBox="0 0 4000 4000" style="enable-background:new 0 0 4000 4000;" xml:space="preserve">
<style type="text/css">
	.st0{fill:#000000;}
	.st1{font-family:'Roboto-Black';}
	.st2{font-size:134px;}
</style>
<g id="logo3_6_">
	<g id="shape_6_">
		<path class="st0" d="M762.79,2177.97c0,0,0.73,334.98,320.89,406.13c-42.98-87.45-81.52-145.26-83-251.98
			c-1.48-106.72,69.66-429.84,775.2-538.04c-109.68,7.41-194.56,13.32-262.35,20.75c-102.07,11.19-304.1,38.1-336.46,71.15
			c-18.46,18.85-32.44,43.37-28.16,96.34c-47.43,32.61-253.46,168.97-194.17,490.61C913.23,2452.18,803.56,2367.7,762.79,2177.97
			S762.79,2177.97,762.79,2177.97"/>
		<path class="st0" d="M1163.73,1795.56c0,0-37.06-63.74-94.86-59.29c-57.81,4.45-56.65,35.57-40.18,38.54
			c16.47,2.96,26.84-15.04,44.63-9S1110.37,1768.88,1163.73,1795.56z"/>
		<path class="st0" d="M1104.44,1312.36c0,0-182.31,155.63-136.36,256.42c-31.13,37.06-154.15,125.99-103.76,329.05
			c1.48-69.66,13.34-254.94,210.47-327.57C1049.6,1551,984.38,1537.66,1104.44,1312.36z"/>
		<path class="st0" d="M1240.8,1641.41c0,0,140.81,16.57,354.25-329.05c45.95-74.11,130.43-120.06,180.83-121.54
			c50.4-1.48,157.11,44.47,231.23,35.57c74.11-8.89,170.45-88.93,170.45-88.93s-62.25,117.1-131.92,127.47s-226.78,0-247.53,11.86
			c-20.75,11.86-22.23,53.36-22.23,53.36s-72.63,72.63-97.83,88.93c-25.2,16.3-54.84,69.66-13.34,100.79
			c41.5,31.13,66.7,50.4,128.95,47.43c-50.4,25.2-102.27,23.72-125.99,11.86c-23.72-11.86-84.49-53.36-145.26-40.02
			C1461.65,1552.48,1319.36,1666.61,1240.8,1641.41z"/>
		<circle class="st0" cx="1751.29" cy="1383.96" r="70.41"/>
		<path class="st0" d="M1571.93,1116.11c0,0,477.33-380.06,1108.5,61.08C2608.04,1138.73,2142.02,880.84,1571.93,1116.11z"/>
	</g>
	<g id="txt_6_">
		<path class="st0" d="M2949.02,3139.71c0.85-0.07,84.18-8.8,102.01-106.48c0,0,1.89-14.86,2.39-35.35v-12.38
			c0-32.06-7.51-57.87-22.32-76.71c-14.61-18.57-33.9-27.61-58.93-27.61c-15.97,0-30.16,3.7-42.15,10.99
			c-11.97,7.25-21.31,17.59-27.81,30.7c-6.63,13.38-9.99,28.54-9.99,45.08c0,25.13,6.52,45.55,19.38,60.72
			c12.76,15.04,29.48,22.36,51.16,22.36c18.05,0,33.5-6.99,47.22-21.37l10.8-11.31l0.04,0.53l4.89-4.89l-3.58,22.78
			c0.01,13.84-5.26,73.01-93.81,100.78C2937.75,3139.95,2943.43,3140.21,2949.02,3139.71z M3022.09,2996.82
			c-4.87,10.27-11.86,18.42-20.78,24.28c-9.02,5.91-18.82,8.91-29.14,8.91c-15.19,0-27.52-6.17-36.64-18.33
			c-8.65-11.53-13.04-26.67-13.04-45.01c0-17.67,4.33-32.62,12.87-44.45c9.06-12.53,21.37-18.88,36.61-18.88
			c15.34,0,27.92,7.13,37.41,21.19c8.88,13.2,13.38,30.61,13.38,51.75L3022.09,2996.82z"/>
		<path class="st0" d="M3143.12,2912.37c-10.16,8.98-19.94,18.79-27.83,27.11l55.42-18.5v78.49c0,65.84,4.1,118.68-13.56,149.63
			c43.9-53.17,39.99-149.3,39.99-149.3l1.3-114.55C3186.93,2888.44,3160.53,2896.98,3143.12,2912.37z"/>
		<path class="st0" d="M3294.25,2912.37c-10.16,8.98-19.94,18.79-27.83,27.11l55.42-18.5v78.49c0,65.84,4.1,118.68-13.56,149.63
			c43.9-53.17,39.99-149.3,39.99-149.3l1.3-114.55C3338.06,2888.44,3311.66,2896.98,3294.25,2912.37z"/>
	</g>
	<g>
		<path class="st0" d="M1812.79,2195.81c-153.8,0-268.48,109.62-268.48,267.49c0,98.38,10.69,197.13,68.47,254.92
			c-29.66-49.24-24.36-119.85-24.36-197.61c0-10.3,0-46.55,0-54.79c0-120.9,98.5-218.91,219.99-218.91
			c121.5,0,209.01,81.41,220.21,200.26c10.48,111.12,17.18,220.06-20.09,272.98c70.44-56.41,64.02-162.19,64.02-269.15
			C2072.56,2293.13,1966.6,2195.81,1812.79,2195.81z"/>
		<path class="st0" d="M2436.14,2194.03c-4.3,0-8.55,0.08-12.75,0.21c-11.82-0.4-23.7-0.1-35.58,0.98
			c-27.15,2.47-53.64,8.74-78.74,18.64c-25.58,10.1-49.64,23.97-71.52,41.22c-21.34,16.83-40.05,36.47-55.62,58.36
			c-15.98,22.49-28.61,47.28-37.52,73.72c-8.62,25.59-13.56,52.11-14.68,78.82c-1.12,27.69,1.85,55.43,8.84,82.46
			c6.72,25.97,16.98,50.7,30.52,73.5c14.19,23.89,31.92,45.6,52.71,64.53c19.59,17.83,41.46,32.75,65.01,44.35
			c25.19,12.39,52.17,20.91,80.18,25.32c13.48,2.13,27.05,3.21,40.59,3.37c0,0,245.83,9.86,245.83-246.34
			c-35.28,80.68-62.35,191.73-245.83,199.34c-10.91-0.4-21.83-1.55-32.69-3.48c-23.19-4.13-45.41-11.58-66.01-22.14
			c-19.18-9.84-37.01-22.41-52.98-37.38c-16.88-15.8-31.2-33.8-42.56-53.49c-10.8-18.68-18.96-39-24.25-60.35
			c-5.49-22.22-7.7-44.86-6.57-67.3c1.08-21.62,5.28-43.14,12.48-63.95c7.41-21.43,17.78-41.48,30.81-59.59
			c12.67-17.59,27.91-33.4,45.3-46.97c17.81-13.89,37.3-25.02,57.97-33.09c20.23-7.9,41.64-12.88,63.63-14.82
			c4.91-0.43,9.81-0.65,14.7-0.77c188.44,1.08,305.82,216.39,305.82,481.85c0,266.13-137.55,481.88-307.23,481.88
			c-68.19,0-131.18-34.86-182.15-93.82c57.64,74.86,131.62,119.86,212.3,119.86c183.97,0,333.1-233.91,333.1-522.46
			S2620.11,2194.03,2436.14,2194.03z"/>
		<path class="st0" d="M3267.34,2260.77c-6.63-5.15-13.36-10.13-20.11-14.65c-34.15-22.97-70.98-38.6-109.47-46.46
			c-26.93-5.46-54.62-6.96-82.29-4.45c-27.15,2.47-53.64,8.74-78.74,18.64c-25.58,10.1-49.64,23.97-71.52,41.22
			c-21.34,16.83-40.05,36.47-55.62,58.36c-15.98,22.49-28.61,47.28-37.52,73.72c-8.62,25.59-13.56,52.11-14.68,78.82
			c-1.12,27.69,1.85,55.43,8.84,82.46c6.72,25.97,16.98,50.7,30.52,73.5c14.19,23.89,31.92,45.6,52.71,64.53
			c19.59,17.83,41.46,32.75,65.01,44.35c25.19,12.39,52.17,20.91,80.18,25.32c13.48,2.13,27.05,3.21,40.59,3.37
			c0,0,245.83,9.86,245.83-246.34c-35.28,80.68-62.35,191.73-245.83,199.34c-10.91-0.4-21.83-1.55-32.69-3.48
			c-23.19-4.13-45.41-11.58-66.01-22.14c-19.18-9.84-37.01-22.41-52.98-37.38c-16.88-15.8-31.2-33.8-42.56-53.49
			c-10.8-18.68-18.96-39-24.25-60.35c-5.49-22.22-7.7-44.86-6.57-67.3c1.08-21.62,5.28-43.14,12.48-63.95
			c7.41-21.43,17.78-41.48,30.81-59.59c12.67-17.59,27.92-33.4,45.3-46.97c17.81-13.89,37.3-25.02,57.97-33.09
			c20.23-7.9,41.64-12.88,63.63-14.82c22.38-1.98,44.71-0.73,66.41,3.71c30.67,6.24,61.68,19.47,89.67,38.28
			c5.75,3.87,11.41,7.86,16.79,12.21c148.69,120.33,105.41,437.29,321.77,437.29C3340.61,2720.74,3439.06,2394.12,3267.34,2260.77z"
			/>
	</g>
	<text transform="matrix(1 0 0 1 3480 2654)" class="st0 st1 st2">®</text>
</g>
</svg>
